<svg xmlns="http://www.w3.org/2000/svg" viewBox="0 0 468 236" width="100%" style="max-width:468px;height:auto" font-family="ui-monospace,monospace" font-size="11"><path d="M104,10 L104,230" fill="none" stroke="#e3e3e3" stroke-width="1" stroke-dasharray="3,3"/><path d="M190,10 L190,230" fill="none" stroke="#e3e3e3" stroke-width="1" stroke-dasharray="3,3"/><path d="M276,10 L276,230" fill="none" stroke="#e3e3e3" stroke-width="1" stroke-dasharray="3,3"/><path d="M362,10 L362,230" fill="none" stroke="#e3e3e3" stroke-width="1" stroke-dasharray="3,3"/><path d="M448,10 L448,230" fill="none" stroke="#e3e3e3" stroke-width="1" stroke-dasharray="3,3"/><text x="96" y="33.0" fill="#111" font-size="11" text-anchor="end">cnt[2:0] (A)</text><path d="M104,16 L190,16" fill="none" stroke="#111" stroke-width="1.6"/><path d="M190,16 L276,16" fill="none" stroke="#111" stroke-width="1.6"/><path d="M276,16 L362,16" fill="none" stroke="#111" stroke-width="1.6"/><path d="M362,16 L448,16" fill="none" stroke="#111" stroke-width="1.6"/><text x="96" y="75.0" fill="#111" font-size="11" text-anchor="end">bit0 도착</text><path d="M104,84 L190,84" fill="none" stroke="#111" stroke-width="1.6"/><path d="M190,84 L190,58" fill="none" stroke="#111" stroke-width="1.6"/><path d="M190,58 L276,58" fill="none" stroke="#111" stroke-width="1.6"/><path d="M276,58 L362,58" fill="none" stroke="#111" stroke-width="1.6"/><path d="M362,58 L448,58" fill="none" stroke="#111" stroke-width="1.6"/><text x="96" y="117.0" fill="#111" font-size="11" text-anchor="end">bit1 도착</text><path d="M104,126 L190,126" fill="none" stroke="#111" stroke-width="1.6"/><path d="M190,126 L276,126" fill="none" stroke="#111" stroke-width="1.6"/><path d="M276,126 L276,100" fill="none" stroke="#111" stroke-width="1.6"/><path d="M276,100 L362,100" fill="none" stroke="#111" stroke-width="1.6"/><path d="M362,100 L448,100" fill="none" stroke="#111" stroke-width="1.6"/><text x="96" y="159.0" fill="#111" font-size="11" text-anchor="end">bit2 도착</text><path d="M104,168 L190,168" fill="none" stroke="#111" stroke-width="1.6"/><path d="M190,168 L276,168" fill="none" stroke="#111" stroke-width="1.6"/><path d="M276,168 L276,142" fill="none" stroke="#111" stroke-width="1.6"/><path d="M276,142 L362,142" fill="none" stroke="#111" stroke-width="1.6"/><path d="M362,142 L448,142" fill="none" stroke="#111" stroke-width="1.6"/><text x="96" y="201.0" fill="#111" font-size="11" text-anchor="end">받은 값</text><path d="M104,184 L190,210" fill="none" stroke="#111" stroke-width="1.3"/><path d="M104,210 L190,184" fill="none" stroke="#111" stroke-width="1.3"/><path d="M190,184 L276,210" fill="none" stroke="#111" stroke-width="1.3"/><path d="M190,210 L276,184" fill="none" stroke="#111" stroke-width="1.3"/><path d="M276,184 L362,184" fill="none" stroke="#111" stroke-width="1.6"/><path d="M362,184 L448,184" fill="none" stroke="#111" stroke-width="1.6"/></svg>